G04 DipTrace Beta 2.3.5.2*
%IN7W_Booster.GBL*%
%MOIN*%
%ADD19C,0.025*%
%ADD30C,0.1969*%
%ADD31R,0.16X0.06*%
%ADD35R,0.0591X0.0591*%
%ADD36C,0.04*%
%FSLAX44Y44*%
G04*
G70*
G90*
G75*
G01*
%LNBottom*%
%LPD*%
D36*
X4500Y6000D3*
X5000D3*
X5500D3*
X6000D3*
X6500D3*
X7000D3*
X7500D3*
X8000D3*
X8500D3*
X9000D3*
X9500D3*
X10000D3*
X4500Y5500D3*
X5000D3*
X5500D3*
X6000D3*
X6500D3*
X7000D3*
X7500D3*
X8000D3*
X8500D3*
X9000D3*
X9500D3*
X10000D3*
X4500Y7000D3*
X5000D3*
X5500D3*
X6000D3*
X6500D3*
X7000D3*
X7500D3*
X8000D3*
X8500D3*
X9000D3*
X9500D3*
X10000D3*
X4500Y6500D3*
X5000D3*
X5500D3*
X6000D3*
X6500D3*
X7000D3*
X7500D3*
X8000D3*
X8500D3*
X9000D3*
X9500D3*
X10000D3*
X4500Y8000D3*
X5000D3*
X5500D3*
X6000D3*
X6500D3*
X7000D3*
X7500D3*
X8000D3*
X8500D3*
X9000D3*
X9500D3*
X10000D3*
X4500Y7500D3*
X5000D3*
X5500D3*
X6000D3*
X6500D3*
X7000D3*
X7500D3*
X8000D3*
X8500D3*
X9000D3*
X9500D3*
X10000D3*
X240Y9206D2*
D19*
X14450D1*
X240Y8958D2*
X14450D1*
X240Y8709D2*
X14450D1*
X240Y8460D2*
X14450D1*
X240Y8212D2*
X14450D1*
X240Y7963D2*
X14450D1*
X240Y7714D2*
X14450D1*
X240Y7465D2*
X14450D1*
X240Y7217D2*
X14450D1*
X240Y6968D2*
X14450D1*
X240Y6719D2*
X14450D1*
X240Y6471D2*
X14450D1*
X240Y6222D2*
X14450D1*
X240Y5973D2*
X14450D1*
X240Y5725D2*
X14450D1*
X240Y5476D2*
X14450D1*
X240Y5227D2*
X14450D1*
X240Y4979D2*
X14450D1*
X240Y4730D2*
X14450D1*
X240Y4481D2*
X14450D1*
X240Y4233D2*
X14450D1*
X240Y3984D2*
X14450D1*
X240Y3735D2*
X14450D1*
X240Y3486D2*
X14450D1*
X240Y3238D2*
X14450D1*
X240Y2989D2*
X14450D1*
X240Y2740D2*
X14450D1*
X240Y2492D2*
X14450D1*
X240Y2243D2*
X14450D1*
X240Y1994D2*
X14450D1*
X240Y1746D2*
X14450D1*
X240Y1497D2*
X14450D1*
X240Y1248D2*
X6254D1*
X7426D2*
X14450D1*
X240Y1000D2*
X6254D1*
X7426D2*
X14450D1*
X240Y751D2*
X6254D1*
X7426D2*
X14450D1*
X240Y502D2*
X6254D1*
X7426D2*
X14450D1*
X6405Y1335D2*
X7400D1*
Y271D1*
X14475Y275D1*
Y9455D1*
X215D1*
Y265D1*
X6281Y269D1*
X6280Y1335D1*
X6405D1*
D30*
X2012Y6622D3*
X12406D3*
D31*
X1000Y1000D3*
Y3000D3*
X13625Y875D3*
Y2875D3*
D35*
X6840Y775D3*
X5840D3*
M02*
