G04 DipTrace Beta 2.3.5.2*
%IN7W_Booster.GTL*%
%MOIN*%
%ADD13C,0.02*%
%ADD14C,0.13*%
%ADD15C,0.06*%
%ADD16C,0.0591*%
%ADD17C,0.0748*%
%ADD18C,0.035*%
%ADD19C,0.025*%
%ADD24R,0.0315X0.0197*%
%ADD25R,0.063X0.0709*%
%ADD26R,0.1339X0.0748*%
%ADD27R,0.0531X0.0394*%
%ADD28R,0.0197X0.0315*%
%ADD29R,0.063X0.1181*%
%ADD31R,0.16X0.06*%
%ADD33R,0.041X0.071*%
%ADD34R,0.024X0.049*%
%ADD35R,0.0591X0.0591*%
%FSLAX44Y44*%
G04*
G70*
G90*
G75*
G01*
%LNTop*%
%LPD*%
X2012Y6622D2*
D13*
X1000Y5609D1*
Y3000D1*
X2012Y6622D2*
D14*
X1000Y5609D1*
Y3950D1*
D15*
Y3000D1*
X12406Y6622D2*
D14*
X13625Y5403D1*
Y3825D1*
D15*
Y2875D1*
X5840Y775D2*
D16*
X5780Y715D1*
D17*
X4500D1*
X1000Y2000D2*
D15*
X2125D1*
X3750Y3625D1*
X11000Y1875D2*
X10752Y2123D1*
Y3629D1*
X8000Y1466D2*
D18*
Y2375D1*
Y1466D2*
D19*
X8034Y1500D1*
X9000D1*
X6171Y2285D2*
D18*
X6535D1*
X6625Y2375D1*
X8000D1*
Y2885D1*
X8745Y3629D1*
X2500Y1426D2*
Y1500D1*
X3250D1*
Y1426D1*
X4074Y2250D1*
X4500D1*
X4535Y2285D1*
X5620D1*
Y2995D1*
X6254Y3629D1*
X6737D1*
X6840Y775D2*
X6940Y875D1*
X8000D1*
X12280Y1875D2*
D15*
X13625D1*
X2349Y4173D2*
D19*
X3146D1*
X4357D2*
X6131D1*
X7341D2*
X8139D1*
X9349D2*
X10146D1*
X11357D2*
X14389D1*
X2349Y3924D2*
X3146D1*
X4357D2*
X5900D1*
X7341D2*
X8139D1*
X9349D2*
X10146D1*
X11357D2*
X14389D1*
X2349Y3675D2*
X2975D1*
X4357D2*
X5654D1*
X7341D2*
X8139D1*
X9349D2*
X10146D1*
X11357D2*
X14389D1*
X2349Y3426D2*
X2729D1*
X4357D2*
X5404D1*
X7341D2*
X7896D1*
X9349D2*
X10146D1*
X11357D2*
X14389D1*
X2349Y3178D2*
X2478D1*
X4357D2*
X5193D1*
X7341D2*
X7646D1*
X9349D2*
X10146D1*
X11357D2*
X14389D1*
X300Y2929D2*
X2229D1*
X4357D2*
X5154D1*
X9349D2*
X10146D1*
X11357D2*
X14389D1*
X300Y2680D2*
X1982D1*
X8607D2*
X10162D1*
X11341D2*
X14389D1*
X3380Y2432D2*
X3541D1*
X8607D2*
X10162D1*
X11493D2*
X11787D1*
X3130Y2183D2*
X3361D1*
X8607D2*
X10162D1*
X6825Y1934D2*
X7396D1*
X8607D2*
X10193D1*
X5458Y1686D2*
X7443D1*
X9446D2*
X10365D1*
X3907Y1437D2*
X6236D1*
X9446D2*
X10506D1*
X300Y1188D2*
X2053D1*
X3696D2*
X6236D1*
X9446D2*
X14389D1*
X300Y940D2*
X6236D1*
X8556D2*
X14389D1*
X300Y691D2*
X6236D1*
X8556D2*
X14389D1*
X300Y442D2*
X6236D1*
X8556D2*
X14389D1*
X2254Y1063D2*
X2078D1*
X2072Y1325D1*
X2060Y1434D1*
X272Y1435D1*
X275Y770D1*
Y325D1*
X6263Y329D1*
X6260Y1420D1*
Y1630D1*
X7420D1*
Y1314D1*
X7467Y1315D1*
X7473Y1337D1*
X7469Y1758D1*
X7420Y1756D1*
Y1932D1*
X6875Y1935D1*
X6801D1*
X6706Y1880D1*
X6625Y1854D1*
X6410Y1845D1*
X6171D1*
X6035Y1863D1*
X5808Y1867D1*
X5858Y1863D1*
X5745D1*
X5620Y1845D1*
X5436D1*
X5434Y1611D1*
X4055D1*
X3675Y1229D1*
X3672Y1063D1*
X3497D1*
X3397Y1011D1*
X3301Y989D1*
X3203D1*
X3107Y1010D1*
X3000Y1060D1*
X2735Y1054D1*
X2647Y1011D1*
X2551Y989D1*
X2453D1*
X2357Y1010D1*
X2252Y1064D1*
X9144Y1863D2*
X9422D1*
Y1137D1*
X9137D1*
X9099Y1123D1*
X9000Y1110D1*
X8527D1*
X8531Y587D1*
Y413D1*
X7469D1*
Y433D1*
X7420Y380D1*
Y330D1*
X14415Y335D1*
Y1308D1*
X12746Y1310D1*
X12750Y1255D1*
X11810D1*
Y1321D1*
X11470Y1320D1*
Y1255D1*
X10530D1*
Y1548D1*
X10353Y1723D1*
X10275Y1820D1*
X10220Y1933D1*
X10188Y2098D1*
Y2775D1*
X10173Y2774D1*
Y4356D1*
X9769Y4352D1*
X9328D1*
X9324Y3360D1*
Y2774D1*
X8578D1*
X8580Y1889D1*
X9000Y1890D1*
X9133Y1865D1*
X7545Y2994D2*
X7572D1*
X7632Y3125D1*
X7689Y3196D1*
X8167Y3674D1*
X8165Y4356D1*
X7769Y4352D1*
X7320D1*
X7317Y3360D1*
Y2814D1*
X7418Y2815D1*
X7420Y2994D1*
X7545D1*
X4328Y2889D2*
X5179D1*
X5180Y2995D1*
X5198Y3118D1*
X5252Y3235D1*
X5309Y3306D1*
X5943Y3941D1*
X6047Y4017D1*
X6128Y4050D1*
X6157Y4149D1*
Y4356D1*
X5769Y4352D1*
X4328D1*
X4330Y2891D1*
X3566Y2365D2*
Y2638D1*
X2865Y1941D1*
X3145Y1940D1*
X3566Y2364D1*
X3170Y3844D2*
Y4352D1*
X2328D1*
X2325Y3705D1*
Y3000D1*
X3170Y3844D1*
X11332Y4356D2*
Y2774D1*
X11321D1*
X11317Y2493D1*
X11470Y2495D1*
Y2429D1*
X11810Y2430D1*
Y2495D1*
X12750D1*
Y2436D1*
X13155Y2440D1*
X14416D1*
X14415Y4354D1*
X12519Y4352D1*
X11336D1*
X275Y2565D2*
X1892D1*
X2313Y2985D1*
X274D1*
X275Y2563D1*
D24*
X2500Y875D3*
Y1426D3*
X3250Y875D3*
Y1426D3*
X9000Y1500D3*
Y949D3*
D25*
X8000Y2375D3*
X9102D3*
D26*
X4500Y2250D3*
Y715D3*
D27*
X8000Y875D3*
Y1466D3*
D28*
X5620Y2285D3*
X6171D3*
D29*
X3750Y3625D3*
X6737Y3629D3*
X8745D3*
X10752D3*
D31*
X1000Y1000D3*
Y2000D3*
Y3000D3*
X13625Y875D3*
Y1875D3*
Y2875D3*
D33*
X11000Y1875D3*
X12280D3*
D34*
X11640Y2245D3*
Y1505D3*
D35*
X6840Y775D3*
X5840D3*
D29*
D3*
X6840D3*
G36*
X180Y8190D2*
X2060D1*
Y3250D1*
X180D1*
Y8190D1*
G37*
G36*
X182Y9381D2*
X14434D1*
Y4657D1*
X182D1*
Y9381D1*
G37*
G36*
X201Y9393D2*
X14453D1*
Y4669D1*
X201D1*
Y9393D1*
G37*
G36*
X178Y9425D2*
X14504D1*
Y4617D1*
X178D1*
Y9425D1*
G37*
M02*
