M48
INCH
T01C0.021
T02C0.0354
T03C0.1299
%
T01
X+004500Y+006000
X+004500Y+005500
X+005000Y+005500
X+005000Y+006000
X+005500Y+006000
X+006000Y+006000
X+006500Y+006000
X+007000Y+006000
X+007500Y+006000
X+007500Y+005500
X+007000Y+005500
X+006500Y+005500
X+006000Y+005500
X+005500Y+005500
X+005500Y+006500
X+005500Y+007000
X+005000Y+007000
X+005000Y+006500
X+004500Y+006500
X+004500Y+007000
X+004500Y+007500
X+004500Y+008000
X+005000Y+008000
X+005500Y+008000
X+006000Y+008000
X+006500Y+008000
X+007000Y+008000
X+007500Y+008000
X+008000Y+008000
X+008500Y+008000
X+009000Y+008000
X+009500Y+008000
X+010000Y+008000
X+010000Y+007500
X+010000Y+007000
X+009500Y+007000
X+009500Y+006500
X+009500Y+006000
X+009000Y+006000
X+009000Y+006500
X+008500Y+006500
X+008000Y+006500
X+008000Y+006000
X+008500Y+006000
X+008500Y+005500
X+009000Y+005500
X+009500Y+005500
X+010000Y+005500
X+010000Y+006000
X+010000Y+006500
X+009500Y+007500
X+009000Y+007500
X+008500Y+007500
X+008500Y+007000
X+008000Y+007000
X+008000Y+007500
X+007500Y+007500
X+007500Y+007000
X+007500Y+006500
X+007000Y+006500
X+006500Y+006500
X+006500Y+007000
X+006500Y+007500
X+006000Y+007500
X+005500Y+007500
X+005000Y+007500
X+006000Y+007000
X+006000Y+006500
X+007000Y+007000
X+007000Y+007500
X+009000Y+007000
X+008000Y+005500
T02
X+006840Y+000775
X+005840Y+000775
T03
X+002012Y+006622
X+012406Y+006622
T00
M30
